<svg xmlns="http://www.w3.org/2000/svg" xmlns:xlink="http://www.w3.org/1999/xlink" width="35" height="35" viewBox="0 0 35 35">
    <defs>
        <path id="a" d="M0 0h35v35H0z"/>
    </defs>
    <g fill="none" fill-rule="evenodd">
        <g>
            <mask id="b" fill="#fff">
                <use xlink:href="#a"/>
            </mask>
            <path fill="#292949" d="M17.5 0a1.025 1.025 0 1 0 0 2.05c8.481 0 15.449 6.968 15.449 15.45 0 8.481-6.968 15.449-15.45 15.449-8.48 0-15.448-6.968-15.448-15.45 0-4.122 1.805-8.073 4.716-10.947v1.72a1.025 1.025 0 1 0 2.051 0V4.17c0-.567-.493-1.026-1.06-1.026h-4.1c-.568 0-1.026.459-1.026 1.026s.458 1.018 1.025 1.018H5.2C1.962 8.438 0 12.874 0 17.5 0 27.112 7.889 35 17.5 35 27.113 35 35 27.112 35 17.5S27.113 0 17.5 0" mask="url(#b)"/>
        </g>
        <path fill="#292949" d="M20.276 20.276c-.401.4-1.05.4-1.45 0l-2.05-2.051a1.023 1.023 0 0 1-.301-.725v-4.101a1.025 1.025 0 1 1 2.05 0v3.676l1.75 1.751c.401.4.401 1.05 0 1.45zm7.477-1.75a1.025 1.025 0 1 1 0-2.051h.974a11.221 11.221 0 0 0-2.564-6.187l-.687.686a1.025 1.025 0 1 1-1.45-1.45l.687-.686a11.221 11.221 0 0 0-6.187-2.565v.973c0 .567-.459 1.025-1.026 1.025a1.024 1.024 0 0 1-1.025-1.025v-.973a11.221 11.221 0 0 0-6.188 2.565l.687.686a1.025 1.025 0 1 1-1.45 1.45l-.686-.686a11.215 11.215 0 0 0-2.565 6.186h.973a1.025 1.025 0 1 1 0 2.051h-.973a11.217 11.217 0 0 0 2.565 6.187l.686-.687a1.025 1.025 0 1 1 1.45 1.45l-.687.688a11.225 11.225 0 0 0 6.188 2.564v-.973a1.025 1.025 0 1 1 2.05 0v.973a11.225 11.225 0 0 0 6.188-2.564l-.687-.688a1.025 1.025 0 1 1 1.45-1.45l.687.687a11.224 11.224 0 0 0 2.564-6.187h-.974z"/>
    </g>
</svg>
