<svg xmlns="http://www.w3.org/2000/svg" xmlns:xlink="http://www.w3.org/1999/xlink" width="35" height="36" viewBox="0 0 35 36">
    <defs>
        <path id="a" d="M.14.628H29V28H.14z"/>
        <path id="c" d="M0 .155h5.129v5.128H0z"/>
        <path id="e" d="M0 .267h5.129v5.13H0z"/>
        <path id="g" d="M0 .387h5.129v5.128H0z"/>
    </defs>
    <g fill="none" fill-rule="evenodd">
        <g transform="translate(6 7.845)">
            <mask id="b" fill="#fff">
                <use xlink:href="#a"/>
            </mask>
            <path fill="#292949" d="M26.553 9.4a2.43 2.43 0 0 0-2.052 1.145l-.19-.057a2.441 2.441 0 0 0-2.41-2.092 2.43 2.43 0 0 0-1.815.818l-.416-.125c.008-.076.024-.15.024-.228a2.447 2.447 0 0 0-2.448-2.447c-.933 0-1.735.528-2.147 1.297L15 7.681V2.508h-.073a2.442 2.442 0 0 0-2.374-1.88 2.443 2.443 0 0 0-2.375 1.88h-.034v.184a2.549 2.549 0 0 0-.038.383c0 .131.02.257.038.383v17.837L4.36 15.947a2.284 2.284 0 0 0-1.916-1.052C1.171 14.895.14 15.95.14 17.251c0 .756.355 1.422.898 1.853l-.038.04 7.768 7.531S9.662 28 11.724 28h14.362S29 28.083 29 24.192v-12.29C29 10.52 27.904 9.4 26.553 9.4" mask="url(#b)"/>
        </g>
        <g transform="translate(0 -.155)">
            <mask id="d" fill="#fff">
                <use xlink:href="#c"/>
            </mask>
            <path fill="#292949" d="M3.307 5.283H1.823A1.822 1.822 0 0 1 0 3.463V1.976C0 .97.816.155 1.823.155h1.484c1.006 0 1.822.815 1.822 1.822v1.485a1.821 1.821 0 0 1-1.822 1.821" mask="url(#d)"/>
        </g>
        <path fill="#292949" d="M11.246 5.128H9.762a1.82 1.82 0 0 1-1.822-1.82V1.821C7.94.815 8.755 0 9.762 0h1.484c1.006 0 1.822.815 1.822 1.822v1.485a1.821 1.821 0 0 1-1.822 1.821M19.295 5.128H17.81a1.821 1.821 0 0 1-1.822-1.82V1.821C15.988.815 16.804 0 17.81 0h1.485c1.006 0 1.822.815 1.822 1.822v1.485a1.821 1.821 0 0 1-1.822 1.821"/>
        <g transform="translate(0 7.845)">
            <mask id="f" fill="#fff">
                <use xlink:href="#e"/>
            </mask>
            <path fill="#292949" d="M3.307 5.396H1.823A1.822 1.822 0 0 1 0 3.574V2.09C0 1.084.816.267 1.823.267h1.484c1.006 0 1.822.817 1.822 1.822v1.485a1.822 1.822 0 0 1-1.822 1.822" mask="url(#f)"/>
        </g>
        <path fill="#292949" d="M11.36 13.241H9.874a1.822 1.822 0 0 1-1.823-1.822V9.934c0-1.005.816-1.822 1.823-1.822h1.484c1.006 0 1.822.817 1.822 1.822v1.485a1.822 1.822 0 0 1-1.822 1.822M11.246 21.36H9.762a1.821 1.821 0 0 1-1.822-1.822v-1.485c0-1.005.815-1.821 1.822-1.821h1.484c1.006 0 1.822.816 1.822 1.82v1.486a1.822 1.822 0 0 1-1.822 1.822"/>
        <g transform="translate(0 15.845)">
            <mask id="h" fill="#fff">
                <use xlink:href="#g"/>
            </mask>
            <path fill="#292949" d="M3.307 5.514H1.823A1.822 1.822 0 0 1 0 3.692V2.207C0 1.204.816.387 1.823.387h1.484c1.006 0 1.822.815 1.822 1.82v1.486a1.822 1.822 0 0 1-1.822 1.821" mask="url(#h)"/>
        </g>
    </g>
</svg>
