<svg xmlns="http://www.w3.org/2000/svg" width="35" height="35" viewBox="0 0 35 35">
    <g fill="none" fill-rule="evenodd" style="mix-blend-mode:multiply">
        <path fill="#292949" d="M24.392 6.495c.136-.008.245-.02.352-.02 1.13-.001 2.26.007 3.388-.01.294-.002.377.089.377.377-.01 3.954-.007 7.907-.008 11.86l-.002 9.282c0 .508-.001.51-.525.51h-3.582v-22zM10.599 17.445V6.95c0-.477.001-.478.483-.478.835 0 1.67.02 2.503-.005.368-.01.475.086.475.465-.014 5.598-.01 11.195-.01 16.793 0 1.46-.008 2.922.007 4.381.003.31-.091.4-.396.394a57.565 57.565 0 0 0-2.65.001c-.325.008-.415-.087-.414-.412.01-3.549.006-7.095.006-10.644H10.6zM8.522 28.492c-.638 0-1.248.013-1.859-.016-.067-.002-.179-.226-.18-.347-.01-1.939-.008-3.878-.008-5.819L6.48 6.99c0-.514 0-.515.517-.515h1.526v22.017zM18.181 17.501v10.496c0 .5.001.5-.498.5-.38-.002-.762-.022-1.14.002-.33.023-.442-.073-.44-.424.013-3.167.005-6.334.004-9.5V6.974c0-.5.002-.5.5-.502.38 0 .763.021 1.14-.003.332-.022.443.078.439.426-.018 1.448-.005 2.896-.005 4.346v6.26M20.263 6.478c.631 0 1.242-.008 1.85.013.07.003.181.173.187.27.02.404.005.81.005 1.215v19.996c0 .52 0 .52-.511.522h-1.531V6.478z"/>
        <path stroke="#292949" stroke-linecap="round" stroke-linejoin="round" stroke-width="2" d="M1 11.984V1h10.982M23.016 1H34v10.982M34 22.926v10.983H23.017M11.984 33.91H1V22.927"/>
    </g>
</svg>
